<svg xmlns="http://www.w3.org/2000/svg" xmlns:xlink="http://www.w3.org/1999/xlink" version="1.1" x="0px" y="0px" viewBox="0 0 100 125" enable-background="new 0 0 100 100" xml:space="preserve"><g><rect x="37" y="63" width="9" height="9"/><rect x="28" y="54" width="9" height="9"/><rect x="19" y="45" width="9" height="9"/><polygon points="19,27 10,27 10,36 10,45 19,45 19,36  "/><rect x="19" y="18" width="9" height="9"/><rect x="28" y="9" width="9" height="9"/><rect x="37" y="18" width="9" height="9"/><rect x="46" y="27" width="9" height="9"/><rect x="55" y="18" width="9" height="9"/><rect x="64" y="9" width="9" height="9"/><rect x="73" y="18" width="9" height="9"/><polygon points="82,27 82,36 82,45 91,45 91,36 91,27  "/><rect x="73" y="45" width="9" height="9"/><rect x="64" y="54" width="9" height="9"/><rect x="55" y="63" width="9" height="9"/><rect x="46" y="72" width="9" height="9"/></g></svg>