<svg xmlns="http://www.w3.org/2000/svg" xmlns:xlink="http://www.w3.org/1999/xlink" version="1.1" x="0px" y="0px" viewBox="0 0 100 125" enable-background="new 0 0 100 100" xml:space="preserve"><g><rect x="41" y="32" width="9" height="9"/><rect x="50" y="23" width="9" height="9"/><polygon points="23,41 23,50 23,59 32,59 41,59 41,50 41,41 32,41  "/><polygon points="68,5 59,5 59,14 59,23 68,23 77,23 77,14 77,5  "/><polygon points="59,95 68,95 77,95 77,86 77,77 68,77 59,77 59,86  "/><rect x="41" y="59" width="9" height="9"/><rect x="50" y="68" width="9" height="9"/></g></svg>