<svg xmlns="http://www.w3.org/2000/svg" xmlns:xlink="http://www.w3.org/1999/xlink" version="1.1" x="0px" y="0px" viewBox="0 0 100 125" enable-background="new 0 0 100 100" xml:space="preserve"><g><rect x="18" y="54" width="9" height="9"/><rect x="27" y="63" width="9" height="9"/><rect x="36" y="72" width="9" height="9"/><rect x="45" y="81" width="9" height="9"/><rect x="54" y="72" width="9" height="9"/><rect x="63" y="63" width="9" height="9"/><rect x="72" y="54" width="9" height="9"/><polygon points="81,36 81,27 72,27 63,27 54,27 45,27 36,27 27,27 18,27 18,36 9,36 9,45 9,54 18,54 18,45 27,45 27,36 36,36    36,45 45,45 45,36 54,36 54,45 63,45 63,36 72,36 72,45 81,45 81,54 90,54 90,45 90,36  "/><rect x="27" y="45" width="9" height="9"/><rect x="45" y="45" width="9" height="9"/><rect x="63" y="45" width="9" height="9"/></g></svg>